<svg viewBox="0 0 269 90" fill="currentColor" xmlns="http://www.w3.org/2000/svg">
    <g clip-path="url(#clip0_198_4325)">
        <path
            d="M255.364 90H13.2683C9.73962 89.9958 6.35684 88.5911 3.86314 86.0945C1.36944 83.5978 -0.0312525 80.2134 -0.03125 76.6847V13.3153C-0.0312525 9.78658 1.36944 6.40216 3.86314 3.90551C6.35684 1.40886 9.73962 0.00416613 13.2683 0H255.364C258.895 0.00416047 262.279 1.40836 264.775 3.90455C267.271 6.40075 268.675 9.78513 268.68 13.3153V76.6847C268.675 80.2149 267.271 83.5993 264.775 86.0955C262.279 88.5917 258.895 89.9958 255.364 90ZM13.2683 3.1441C10.5735 3.14827 7.99043 4.22171 6.08636 6.12873C4.18229 8.03574 3.11285 10.6204 3.11285 13.3153V76.6847C3.11285 79.3796 4.18229 81.9643 6.08636 83.8713C7.99043 85.7783 10.5735 86.8517 13.2683 86.8559H255.364C256.7 86.8559 258.023 86.5928 259.257 86.0817C260.491 85.5705 261.612 84.8213 262.556 83.8768C263.501 82.9323 264.25 81.8111 264.761 80.5771C265.272 79.343 265.536 78.0204 265.536 76.6847V13.3153C265.536 11.9796 265.272 10.657 264.761 9.42295C264.25 8.18892 263.501 7.06766 262.556 6.12317C261.612 5.17869 260.491 4.42949 259.257 3.91834C258.023 3.40719 256.7 3.1441 255.364 3.1441H13.2683Z"/>
        <path
            d="M89.2774 26.2687H87.5009C87.3938 25.5571 87.2201 24.8571 86.9822 24.1779H84.404C84.1625 24.856 83.9888 25.5564 83.8852 26.2687H82.2031C82.2031 26.1273 82.6433 24.9325 83.508 22.7002C84.0281 21.5005 84.464 20.2661 84.8127 19.0059H86.9193C87.2347 20.2453 87.6285 21.4635 88.0983 22.653C88.5652 23.8329 88.959 25.0404 89.2774 26.2687ZM86.6992 23.1246C86.0704 21.191 85.756 20.1692 85.756 19.9805H85.6617C85.6617 20.1273 85.3315 21.1753 84.6713 23.1246H86.6992Z"/>
        <path
            d="M96.477 26.269H95.0936C94.6552 25.4096 94.1283 24.5982 93.5216 23.8481C92.7672 22.8921 92.1532 21.8334 91.698 20.704H91.6037C91.6924 21.4343 91.7396 22.1691 91.7451 22.9048C91.7451 23.8324 91.7451 24.9485 91.8237 26.269H90.4561C90.4561 25.1214 90.5347 23.8481 90.5347 22.4647C90.5347 21.0813 90.5347 19.9651 90.4561 19.0061H92.1067C92.4643 19.8485 92.9292 20.6411 93.4901 21.3642C94.1708 22.2817 94.7358 23.2796 95.1722 24.3354H95.2508C95.1722 23.5022 95.1251 22.7634 95.1251 22.1031C95.1251 21.097 95.1251 20.0594 95.0465 18.959H96.4456C96.4456 19.8865 96.367 21.0341 96.367 22.4175C96.367 23.8009 96.4142 25.1372 96.477 26.269Z"/>
        <path
            d="M104.558 22.3861C104.57 23.4029 104.206 24.3884 103.536 25.1529C103.181 25.5513 102.741 25.8643 102.248 26.0684C101.756 26.2726 101.223 26.3627 100.691 26.332C100.14 26.332 99.3857 26.332 98.4268 26.332C98.4268 25.2158 98.4268 23.9425 98.4268 22.5276C98.4268 21.1128 98.4268 20.0281 98.4268 19.0691H100.722C101.253 19.0177 101.789 19.0809 102.293 19.2545C102.798 19.4281 103.259 19.7079 103.646 20.0752C104.231 20.7027 104.557 21.5283 104.558 22.3861ZM102.986 22.6219C103.007 21.967 102.783 21.3278 102.357 20.8298C102.118 20.5692 101.822 20.3671 101.492 20.239C101.162 20.1109 100.807 20.0603 100.455 20.0909H99.7944C99.7944 20.8298 99.7944 21.663 99.7944 22.4176C99.7944 23.1722 99.7944 24.194 99.7944 25.0743C100.035 25.0977 100.277 25.0977 100.518 25.0743C100.851 25.0998 101.186 25.0462 101.494 24.9178C101.803 24.7894 102.077 24.5899 102.294 24.3355C102.726 23.8636 102.986 23.2599 103.033 22.6219H102.986Z"/>
        <path
            d="M112.008 26.2688H110.31C110.07 25.4231 109.737 24.6061 109.32 23.8322C109.186 23.6691 109.014 23.5411 108.82 23.4589C108.626 23.3768 108.414 23.343 108.204 23.3605H107.575C107.575 24.3195 107.575 25.2784 107.575 26.2531H106.003C106.003 25.137 106.082 23.8636 106.082 22.4488C106.082 21.0339 106.082 19.9492 106.003 18.9902H108.738C110.452 18.9902 111.301 19.5719 111.301 20.7352C111.308 21.1746 111.168 21.6038 110.903 21.9543C110.638 22.3048 110.264 22.5564 109.839 22.6688V22.7632C110.054 22.836 110.253 22.9515 110.423 23.1027C110.593 23.254 110.731 23.4379 110.829 23.6435C111.288 24.4877 111.682 25.3653 112.008 26.2688ZM109.917 21.1439C109.917 20.4051 109.446 20.0278 108.487 20.0278C108.176 20.0271 107.866 20.0534 107.559 20.1064C107.559 20.688 107.559 21.4269 107.559 22.3544H108.078C109.32 22.3701 109.917 21.9614 109.917 21.1439Z"/>
        <path
            d="M119.995 22.5276C120.031 23.5747 119.659 24.5949 118.957 25.373C118.63 25.7355 118.23 26.024 117.783 26.2192C117.335 26.4144 116.851 26.5118 116.363 26.5049C115.902 26.5159 115.444 26.4291 115.018 26.2503C114.593 26.0715 114.21 25.8046 113.895 25.4673C113.566 25.1163 113.309 24.7037 113.139 24.2533C112.969 23.8028 112.889 23.3232 112.905 22.842C112.869 21.7949 113.241 20.7746 113.942 19.9966C114.269 19.6341 114.67 19.3456 115.117 19.1504C115.564 18.9552 116.048 18.8578 116.536 18.8647C116.998 18.8537 117.456 18.9405 117.881 19.1193C118.307 19.2981 118.689 19.565 119.004 19.9023C119.334 20.2533 119.591 20.6658 119.761 21.1163C119.931 21.5668 120.01 22.0464 119.995 22.5276ZM118.423 22.7005C118.46 22.0224 118.254 21.3533 117.841 20.814C117.668 20.586 117.444 20.4007 117.188 20.2726C116.932 20.1445 116.65 20.077 116.363 20.0752C116.09 20.078 115.822 20.1467 115.581 20.2753C115.34 20.4039 115.134 20.5887 114.98 20.814C114.588 21.3452 114.388 21.9938 114.414 22.6534C114.374 23.3343 114.586 24.0061 115.011 24.5398C115.18 24.7685 115.401 24.9543 115.655 25.0826C115.909 25.2109 116.189 25.2781 116.473 25.2787C116.746 25.2758 117.015 25.2072 117.255 25.0786C117.496 24.9499 117.703 24.7651 117.857 24.5398C118.267 24.0044 118.478 23.3431 118.454 22.6691L118.423 22.7005Z"/>
        <path
            d="M123.154 26.2687H121.582C121.582 25.1211 121.582 23.8478 121.582 22.4644C121.582 21.081 121.582 19.9648 121.582 19.0059H123.154C123.154 19.9491 123.075 21.0967 123.075 22.4644C123.075 23.8321 123.107 25.1369 123.154 26.2687Z"/>
        <path
            d="M131.235 22.3864C131.251 23.4011 130.893 24.3863 130.228 25.1532C129.872 25.5497 129.432 25.8614 128.939 26.0655C128.447 26.2695 127.915 26.3606 127.383 26.3322C126.833 26.3322 126.062 26.3322 125.104 26.3322C125.104 25.216 125.104 23.9427 125.104 22.5278C125.104 21.113 125.104 20.0283 125.104 19.0693H127.414C127.943 19.0192 128.476 19.083 128.978 19.2566C129.48 19.4302 129.938 19.7094 130.323 20.0754C130.908 20.7029 131.233 21.5285 131.235 22.3864ZM129.662 22.6222C129.682 21.9702 129.464 21.3332 129.049 20.83C128.807 20.5692 128.508 20.367 128.176 20.239C127.843 20.111 127.486 20.0604 127.131 20.0912H126.471C126.471 20.83 126.471 21.6632 126.471 22.4178C126.471 23.1724 126.471 24.1942 126.471 25.0746C126.717 25.0979 126.964 25.0979 127.21 25.0746C127.543 25.0975 127.877 25.0427 128.185 24.9145C128.494 24.7863 128.768 24.5881 128.986 24.3357C129.408 23.8585 129.661 23.2568 129.71 22.6222H129.662Z"/>
        <path
            d="M141.956 26.2687H140.18C140.073 25.5571 139.899 24.8571 139.661 24.1779H137.036C136.785 24.8541 136.606 25.5549 136.501 26.2687H134.819C134.819 26.1273 135.26 24.9325 136.124 22.7002C136.644 21.5005 137.08 20.2661 137.429 19.0059H139.536C139.851 20.2453 140.245 21.4635 140.715 22.653C141.203 23.8315 141.618 25.039 141.956 26.2687ZM139.378 23.1246C138.749 21.191 138.435 20.1692 138.435 19.9805H138.341C138.341 20.1273 138.011 21.1753 137.35 23.1246H139.378Z"/>
        <path
            d="M148.465 20.9556C148.492 21.3419 148.414 21.7283 148.24 22.0742C148.066 22.42 147.801 22.7124 147.475 22.9207C146.748 23.3672 145.906 23.5912 145.054 23.5652H144.677C144.677 24.2569 144.677 25.1373 144.677 26.332H143.104C143.104 25.263 143.183 23.9897 143.183 22.5276C143.183 21.0656 143.183 20.0438 143.104 19.0691H145.887C146.518 19.0484 147.14 19.2123 147.679 19.5407C147.926 19.6831 148.13 19.89 148.268 20.1392C148.407 20.3885 148.475 20.6707 148.465 20.9556ZM147.035 21.27C147.035 20.4683 146.5 20.0752 145.463 20.0752C145.183 20.071 144.903 20.0973 144.629 20.1539C144.629 20.8613 144.629 21.6473 144.629 22.5434H144.96C146.343 22.5276 147.035 22.0717 147.035 21.2228V21.27Z"/>
        <path
            d="M155.162 20.9556C155.188 21.3419 155.111 21.7283 154.936 22.0742C154.762 22.42 154.498 22.7124 154.171 22.9207C153.438 23.3667 152.592 23.5906 151.735 23.5652H151.357C151.357 24.2569 151.357 25.1373 151.357 26.332H149.785C149.785 25.263 149.785 23.9897 149.785 22.5276C149.785 21.0656 149.785 20.0438 149.785 19.0691H152.552C153.183 19.0484 153.805 19.2123 154.344 19.5407C154.591 19.6854 154.797 19.8918 154.94 20.1399C155.084 20.388 155.16 20.6691 155.162 20.9556ZM153.715 21.27C153.715 20.4683 153.181 20.0752 152.143 20.0752C151.864 20.0716 151.584 20.098 151.31 20.1539C151.31 20.8613 151.31 21.6473 151.31 22.5434H151.64C153.024 22.5329 153.715 22.0927 153.715 21.2228V21.27Z"/>
        <path
            d="M166.087 22.5276C166.126 23.578 165.747 24.601 165.034 25.373C164.712 25.7367 164.314 26.0262 163.869 26.2216C163.424 26.417 162.942 26.5137 162.456 26.5049C161.995 26.5159 161.536 26.4291 161.111 26.2503C160.686 26.0715 160.303 25.8046 159.988 25.4673C159.658 25.1163 159.401 24.7037 159.231 24.2533C159.061 23.8028 158.982 23.3232 158.998 22.842C158.961 21.7949 159.333 20.7746 160.035 19.9966C160.362 19.6341 160.762 19.3456 161.21 19.1504C161.657 18.9552 162.141 18.8578 162.629 18.8647C163.09 18.8537 163.549 18.9405 163.974 19.1193C164.399 19.2981 164.782 19.565 165.097 19.9023C165.427 20.2533 165.684 20.6658 165.854 21.1163C166.024 21.5668 166.103 22.0464 166.087 22.5276ZM164.515 22.7005C164.556 22.0195 164.343 21.3477 163.918 20.814C163.749 20.5854 163.529 20.3995 163.275 20.2712C163.021 20.1429 162.74 20.0758 162.456 20.0752C162.183 20.078 161.915 20.1467 161.674 20.2753C161.433 20.4039 161.227 20.5887 161.073 20.814C160.676 21.3437 160.471 21.9921 160.491 22.6534C160.457 23.3361 160.675 24.0077 161.104 24.5398C161.273 24.7685 161.494 24.9543 161.747 25.0826C162.001 25.2109 162.282 25.2781 162.566 25.2787C162.839 25.2758 163.107 25.2072 163.348 25.0786C163.589 24.9499 163.795 24.7651 163.949 24.5398C164.359 24.0044 164.571 23.3431 164.547 22.6691L164.515 22.7005Z"/>
        <path
            d="M173.649 26.269H172.265C171.831 25.4068 171.304 24.595 170.693 23.8481C169.942 22.8869 169.324 21.8295 168.854 20.704C168.942 21.4343 168.99 22.1691 168.995 22.9048C168.995 23.8324 168.995 24.9485 169.074 26.269H167.69C167.69 25.1214 167.785 23.8481 167.785 22.4647C167.785 21.0813 167.785 19.9651 167.69 19.0061H169.357C169.705 19.85 170.165 20.6431 170.724 21.3642C171.412 22.2776 171.977 23.2763 172.407 24.3354H172.501C172.412 23.5945 172.365 22.8493 172.359 22.1031C172.359 21.097 172.359 20.0594 172.281 18.959H173.68C173.68 19.8865 173.601 21.0341 173.601 22.4175C173.601 23.8009 173.601 25.1372 173.649 26.269Z"/>
        <path
            d="M107.859 49.5356C107.945 51.1096 107.711 52.6846 107.17 54.1654C106.63 55.6462 105.795 57.0019 104.715 58.1504C103.499 59.414 102.031 60.4072 100.406 61.0654C98.7805 61.7236 97.0349 62.032 95.2826 61.9705C93.4736 62.0323 91.6706 61.7293 89.9812 61.0797C88.2917 60.4301 86.7503 59.447 85.4488 58.1892C84.1472 56.9313 83.1121 55.4243 82.4052 53.758C81.6983 52.0917 81.334 50.3002 81.334 48.4902C81.334 46.6801 81.6983 44.8886 82.4052 43.2223C83.1121 41.556 84.1472 40.049 85.4488 38.7911C86.7503 37.5333 88.2917 36.5502 89.9812 35.9006C91.6706 35.251 93.4736 34.948 95.2826 35.0098C97.1043 35.0034 98.9078 35.3727 100.58 36.0945C102.134 36.7235 103.518 37.709 104.621 38.9714L102.341 41.2509C101.462 40.2276 100.356 39.4234 99.1118 38.9022C97.8674 38.3809 96.5186 38.157 95.1725 38.2482C93.8369 38.2414 92.5136 38.5032 91.2811 39.0178C90.0486 39.5325 88.9321 40.2897 87.998 41.2443C87.0639 42.199 86.3312 43.3316 85.8434 44.575C85.3556 45.8184 85.1227 47.1471 85.1586 48.4823C85.112 49.824 85.3369 51.1612 85.8198 52.4138C86.3028 53.6664 87.0338 54.8085 87.969 55.7716C88.9042 56.7347 90.0243 57.4989 91.2622 58.0185C92.5 58.538 93.8301 58.8021 95.1725 58.795C96.5182 58.8406 97.8589 58.6088 99.1112 58.1139C100.363 57.6189 101.5 56.8715 102.451 55.9181C103.771 54.4861 104.535 52.6293 104.605 50.6832H95.1725V47.5391H107.749C107.841 48.2004 107.877 48.8682 107.859 49.5356Z"/>
        <path
            d="M111.789 45.8411C113.523 44.1189 115.868 43.1523 118.313 43.1523C120.757 43.1523 123.102 44.1189 124.837 45.8411C126.487 47.6905 127.4 50.0827 127.4 52.5616C127.4 55.0405 126.487 57.4327 124.837 59.2821C123.102 61.0044 120.757 61.9709 118.313 61.9709C115.868 61.9709 113.523 61.0044 111.789 59.2821C110.138 57.4327 109.226 55.0405 109.226 52.5616C109.226 50.0827 110.138 47.6905 111.789 45.8411ZM114.257 57.1913C114.778 57.7432 115.407 58.1828 116.104 58.4833C116.802 58.7837 117.553 58.9387 118.313 58.9387C119.072 58.9387 119.823 58.7837 120.521 58.4833C121.218 58.1828 121.847 57.7432 122.368 57.1913C123.475 55.9027 124.084 54.2603 124.084 52.5616C124.084 50.863 123.475 49.2205 122.368 47.9319C121.847 47.38 121.218 46.9404 120.521 46.64C119.823 46.3395 119.072 46.1845 118.313 46.1845C117.553 46.1845 116.802 46.3395 116.104 46.64C115.407 46.9404 114.778 47.38 114.257 47.9319C113.15 49.2205 112.541 50.863 112.541 52.5616C112.541 54.2603 113.15 55.9027 114.257 57.1913Z"/>
        <path
            d="M131.062 45.8411C132.796 44.1189 135.141 43.1523 137.586 43.1523C140.03 43.1523 142.375 44.1189 144.11 45.8411C145.76 47.6905 146.673 50.0827 146.673 52.5616C146.673 55.0405 145.76 57.4327 144.11 59.2821C142.375 61.0044 140.03 61.9709 137.586 61.9709C135.141 61.9709 132.796 61.0044 131.062 59.2821C129.421 57.4281 128.515 55.0376 128.515 52.5616C128.515 50.0856 129.421 47.6951 131.062 45.8411ZM133.53 57.1913C134.051 57.7432 134.68 58.1828 135.378 58.4833C136.075 58.7837 136.826 58.9387 137.586 58.9387C138.345 58.9387 139.096 58.7837 139.794 58.4833C140.491 58.1828 141.12 57.7432 141.642 57.1913C142.748 55.9027 143.357 54.2603 143.357 52.5616C143.357 50.863 142.748 49.2205 141.642 47.9319C141.12 47.38 140.491 46.9404 139.794 46.64C139.096 46.3395 138.345 46.1845 137.586 46.1845C136.826 46.1845 136.075 46.3395 135.378 46.64C134.68 46.9404 134.051 47.38 133.53 47.9319C132.435 49.2261 131.834 50.8664 131.834 52.5616C131.834 54.2568 132.435 55.8971 133.53 57.1913Z"/>
        <path
            d="M156.482 69.6893C154.643 69.7727 152.832 69.2172 151.357 68.1172C150.12 67.1828 149.141 65.9494 148.511 64.5329L151.546 63.2753C151.889 64.2558 152.539 65.0993 153.401 65.6805C154.31 66.3488 155.417 66.6921 156.545 66.6552C157.332 66.7043 158.121 66.59 158.863 66.3195C159.604 66.0489 160.281 65.628 160.852 65.0831C161.934 63.8605 162.497 62.265 162.424 60.6342V58.9364H162.188C161.557 59.8458 160.716 60.5899 159.736 61.1059C158.637 61.6878 157.411 61.9851 156.167 61.9705C155.046 61.9674 153.939 61.7245 152.919 61.2581C151.9 60.7918 150.992 60.1127 150.256 59.2666C148.655 57.3998 147.774 55.0214 147.774 52.5618C147.774 50.1021 148.655 47.7237 150.256 45.8569C150.988 45.006 151.895 44.3236 152.915 43.8568C153.936 43.39 155.045 43.1499 156.167 43.153C157.411 43.1308 158.64 43.4285 159.736 44.0176C160.716 44.5336 161.557 45.2777 162.188 46.1871H162.33V43.7347H165.474V60.4928C165.56 61.7644 165.37 63.0396 164.917 64.2308C164.464 65.4221 163.758 66.5012 162.849 67.3941C161.09 68.9324 158.817 69.7519 156.482 69.6893ZM156.733 58.8735C157.481 58.8812 158.221 58.7311 158.906 58.4332C159.592 58.1352 160.207 57.696 160.711 57.1443C161.768 55.827 162.345 54.1882 162.345 52.4989C162.345 50.8095 161.768 49.1708 160.711 47.8535C160.209 47.2986 159.595 46.8572 158.909 46.559C158.223 46.2608 157.481 46.1125 156.733 46.1242C155.98 46.1264 155.236 46.2888 154.55 46.6004C153.865 46.9121 153.253 47.366 152.756 47.9321C151.69 49.2395 151.108 50.8748 151.108 52.5618C151.108 54.2487 151.69 55.884 152.756 57.1914C153.259 57.746 153.873 58.1882 154.558 58.4889C155.244 58.7896 155.985 58.9421 156.733 58.9364V58.8735Z"/>
        <path d="M171.967 61.3887H168.65V35.5913H171.967V61.3887Z"/>
        <path
            d="M182.924 61.9702C181.712 62.0107 180.505 61.7935 179.383 61.3328C178.261 60.8721 177.25 60.1784 176.416 59.2977C174.725 57.468 173.826 55.0435 173.916 52.5536C173.867 50.1176 174.731 47.7513 176.337 45.9195C177.108 45.0124 178.074 44.292 179.163 43.8127C180.252 43.3335 181.436 43.1078 182.626 43.1527C183.797 43.1001 184.965 43.3019 186.051 43.7443C187.136 44.1867 188.113 44.859 188.914 45.7151C190.552 47.6053 191.397 50.0553 191.272 52.5536V53.1667H177.328C177.339 54.7507 177.978 56.2656 179.104 57.3798C179.611 57.8824 180.212 58.28 180.873 58.5498C181.534 58.8195 182.242 58.9562 182.956 58.9518C183.979 59.0431 185.004 58.7977 185.875 58.2529C186.747 57.7081 187.416 56.8936 187.782 55.9335L190.737 57.144C190.142 58.5426 189.153 59.7385 187.892 60.5868C186.425 61.5636 184.685 62.0481 182.924 61.9702ZM187.64 50.4313C187.523 49.3386 187.029 48.3211 186.241 47.5544C185.742 47.0721 185.146 46.7009 184.493 46.4652C183.84 46.2295 183.145 46.1346 182.453 46.1868C181.3 46.172 180.181 46.5803 179.309 47.3344C178.369 48.1562 177.718 49.2585 177.453 50.4785L187.64 50.4313Z"/>
        <path
            d="M204.257 61.3886H200.939V35.5912H209.743C211.843 35.5601 213.874 36.3367 215.418 37.7607C216.174 38.4639 216.777 39.3154 217.189 40.2621C217.602 41.2088 217.815 42.2303 217.815 43.2628C217.815 44.2954 217.602 45.3169 217.189 46.2636C216.777 47.2102 216.174 48.0618 215.418 48.765C213.88 50.2004 211.846 50.9836 209.743 50.9502H204.257V61.3886ZM204.257 47.7589H209.806C210.433 47.7888 211.059 47.6788 211.638 47.4368C212.217 47.1948 212.735 46.8269 213.154 46.3598C213.97 45.5356 214.428 44.4227 214.428 43.2628C214.428 42.103 213.97 40.9901 213.154 40.1659C212.736 39.6968 212.218 39.3266 211.639 39.0819C211.06 38.8372 210.434 38.7242 209.806 38.7511H204.257V47.7589Z"/>
        <path d="M223.295 61.3887H219.978V35.5913H223.295V61.3887Z"/>
        <path
            d="M231.831 61.9701C230.119 62.0441 228.44 61.4844 227.115 60.3981C226.489 59.8361 225.994 59.143 225.667 58.3681C225.339 57.5933 225.186 56.7557 225.219 55.9151C225.252 55.0744 225.47 54.2514 225.858 53.5046C226.245 52.7579 226.792 52.1057 227.461 51.5946C229.074 50.4833 231.006 49.9311 232.963 50.0225C234.627 49.9579 236.279 50.3263 237.758 51.0915V50.5885C237.786 49.9976 237.68 49.408 237.449 48.8636C237.218 48.3192 236.866 47.8341 236.421 47.4444C235.519 46.655 234.35 46.2391 233.151 46.281C232.236 46.2656 231.334 46.4992 230.542 46.957C229.816 47.3782 229.26 48.04 228.97 48.8278L225.951 47.5387C226.444 46.3298 227.274 45.2877 228.341 44.5361C229.725 43.5855 231.38 43.111 233.057 43.1841C235.116 43.1117 237.126 43.8192 238.685 45.1649C239.441 45.8761 240.033 46.7442 240.419 47.7082C240.804 48.6723 240.975 49.7089 240.917 50.7457V61.4199H237.773V58.9361H237.647C237.033 59.9116 236.171 60.7065 235.149 61.2396C234.127 61.7727 232.982 62.0248 231.831 61.9701ZM232.365 58.9361C233.769 58.9144 235.109 58.3511 236.107 57.364C236.633 56.9176 237.056 56.361 237.344 55.7335C237.632 55.106 237.778 54.4229 237.773 53.7326C236.543 52.8763 235.055 52.4709 233.56 52.585C232.26 52.4919 230.969 52.8592 229.913 53.6225C229.537 53.9122 229.231 54.2833 229.018 54.708C228.806 55.1328 228.693 55.6001 228.687 56.0749C228.679 56.4872 228.779 56.8943 228.978 57.2557C229.177 57.617 229.466 57.92 229.819 58.1343C230.565 58.6578 231.454 58.9379 232.365 58.9361Z"/>
        <path
            d="M248.148 69.1703H244.737L248.84 60.2567L241.562 43.7188H245.162L250.428 56.4052L255.553 43.7188H259.153L248.148 69.1703Z"/>
        <path
            d="M19.9341 48.0415C19.9341 39.804 19.9341 31.5664 19.9341 23.3289C19.8706 22.3427 20.1982 21.3713 20.8459 20.625C21.1289 20.3263 21.3333 20.2477 21.6791 20.625C27.2127 26.2843 32.7621 31.9332 38.3272 37.5717C41.9324 41.2398 45.5376 44.9079 49.1429 48.576C49.4887 48.9376 49.5202 49.1263 49.1429 49.4878C40.2974 58.2808 31.4678 67.0843 22.6538 75.8983C22.5703 76.009 22.4622 76.0988 22.3381 76.1606C22.214 76.2225 22.0772 76.2547 21.9385 76.2547C21.7998 76.2547 21.6631 76.2225 21.5389 76.1606C21.4148 76.0988 21.3067 76.009 21.2232 75.8983C20.7904 75.5662 20.4453 75.1334 20.2179 74.6375C19.9904 74.1416 19.8876 73.5976 19.9184 73.0529V48.0415H19.9341Z"/>
        <path
            d="M23.0938 19.6821C23.6474 19.6879 24.1897 19.8397 24.6658 20.1223L58.5435 39.097C59.0623 39.3799 59.0466 39.5529 58.6536 39.9459C56.1226 42.4297 53.623 44.9293 51.1077 47.4289C50.8405 47.7118 50.6833 47.8533 50.3217 47.4289C41.3505 38.2586 32.3636 29.1092 23.361 19.9808C23.3138 19.9651 23.251 19.8708 23.0938 19.6821Z"/>
        <path
            d="M25.624 75.6156C33.8092 67.3361 41.9943 59.0461 50.1795 50.7457C50.6983 50.2426 50.9341 50.3055 51.39 50.7457C53.4651 52.9151 55.5716 55.0374 57.6782 57.1597C58.0555 57.537 58.0869 57.6942 57.5839 57.9614L26.0485 75.254C25.896 75.361 25.7539 75.482 25.624 75.6156Z"/>
        <path
            d="M72.4245 48.2777C72.415 48.6888 72.3073 49.0916 72.1104 49.4526C71.9135 49.8136 71.6331 50.1223 71.2926 50.3528C70.7929 50.7061 70.2674 51.0214 69.7206 51.2961C66.5765 53.0568 63.3538 54.8017 60.1782 56.5782C60.1017 56.6393 60.0136 56.6842 59.9193 56.7103C59.8249 56.7363 59.7262 56.7429 59.6291 56.7297C59.5321 56.7165 59.4388 56.6837 59.3548 56.6333C59.2709 56.5829 59.198 56.516 59.1407 56.4367C56.8769 54.0995 54.6027 51.7834 52.318 49.4882C51.9721 49.1581 51.9721 48.9694 52.318 48.6236C54.9905 45.9982 57.6315 43.3572 60.2883 40.7633C60.3379 40.6927 60.4016 40.633 60.4754 40.588C60.5491 40.5431 60.6313 40.5138 60.7168 40.502C60.8024 40.4902 60.8894 40.4961 60.9725 40.5195C61.0557 40.5428 61.1331 40.583 61.2001 40.6375L70.6324 45.9354C71.1128 46.1306 71.5323 46.4507 71.8474 46.8625C72.1625 47.2744 72.3618 47.763 72.4245 48.2777Z"/>
    </g>
    <defs>
        <clipPath id="clip0_198_4325">
            <rect width="268.679" height="90"/>
        </clipPath>
    </defs>
</svg>
