<svg width="35" height="35" viewBox="0 0 35 35" fill="none" xmlns="http://www.w3.org/2000/svg">
<g clip-path="url(#clip0_214_137)">
<path d="M10.6641 9.57025H17.1582V8.81447L15.5355 8.35085C14.023 7.91875 12.816 6.83943 12.1807 5.46875H10.6641C10.0978 5.46875 9.63867 5.92785 9.63867 6.49414V8.54493C9.63867 9.11115 10.0978 9.57025 10.6641 9.57025Z" fill="#565656"/>
<path d="M23.3105 8.81446V9.57031H29.8047C30.371 9.57031 30.8301 9.11121 30.8301 8.54492V6.49414C30.8301 5.92785 30.371 5.46875 29.8047 5.46875H28.2881C27.6527 6.83942 26.4458 7.91875 24.9333 8.35085L23.3105 8.81446Z" fill="#565656"/>
<path d="M3.87399 20.7577C3.68033 20.2255 3.09189 19.9512 2.55972 20.1449L0.743066 20.8061C0.337969 20.9536 0.0683594 21.3386 0.0683594 21.7696V33.9746C0.0683594 34.5409 0.527461 35 1.09375 35H5.53602C5.65564 35 5.77432 34.9791 5.8867 34.9381L7.70342 34.2769C8.2356 34.0832 8.50992 33.4948 8.31626 32.9626L3.87399 20.7577Z" fill="#565656"/>
<path d="M16.0988 6.37896L19.209 7.26763V19.6132C19.2363 19.6185 19.2633 19.625 19.2907 19.6298L21.2598 19.977V7.26763L24.3699 6.37902C25.766 5.98008 26.7285 4.70401 26.7285 3.25206C26.7285 1.45599 25.2725 0 23.4765 0C22.0245 0 20.7484 0.962568 20.3495 2.35867L20.2344 2.76165L20.1193 2.3586C19.7203 0.962568 18.4443 0 16.9923 0C15.1962 0 13.7402 1.45599 13.7402 3.25206C13.7402 4.70401 14.7027 5.98008 16.0988 6.37896ZM22.3214 2.92202C22.4687 2.40632 22.9401 2.05078 23.4765 2.05078H23.4765C24.1399 2.05078 24.6777 2.58863 24.6777 3.25206C24.6777 3.78841 24.3222 4.25975 23.8065 4.40713L21.7274 5.00117L22.3214 2.92202ZM16.9923 2.05078C17.5287 2.05078 18 2.40632 18.1474 2.92202L18.7414 5.0011L16.6623 4.40706C16.1466 4.25975 15.791 3.78841 15.791 3.25206C15.791 2.58863 16.3289 2.05078 16.9923 2.05078Z" fill="#565656"/>
<path d="M11.0878 16.9148C13.2574 16.9148 15.3509 17.5353 17.1582 18.7115V11.6211H11.0059V16.9157C11.0332 16.9155 11.0604 16.9148 11.0878 16.9148Z" fill="#565656"/>
<path d="M23.3105 20.4003C24.2184 20.7161 25.0029 21.3056 25.565 22.1084C25.7208 22.331 25.8555 22.5641 25.9685 22.8052L29.4629 21.176V11.6211H23.3105V20.4003Z" fill="#565656"/>
<path d="M34.7745 24.078C34.2533 22.646 32.6171 21.9682 31.2358 22.6121L26.3982 24.8675C26.3925 25.0952 26.3701 25.3252 26.3294 25.5561C25.8876 28.0617 23.4897 29.7408 20.9841 29.2989L14.0794 28.0815C13.5217 27.9832 13.1493 27.4513 13.2477 26.8936C13.3461 26.3359 13.8779 25.9635 14.4356 26.0619L21.3402 27.2793C22.7344 27.5252 24.0639 26.5942 24.3097 25.2C24.5556 23.8059 23.6246 22.4763 22.2305 22.2306L18.9346 21.6495C17.9484 21.4756 17.0287 21.1015 16.2012 20.5377C13.7958 18.899 10.7268 18.5148 7.99168 19.5104L5.88184 20.2783L10.3638 32.5923L19.0504 33.7861C20.1136 33.9322 21.178 33.7461 22.1285 33.2479L33.5394 27.2675C34.6916 26.6636 35.2195 25.3005 34.7745 24.078Z" fill="#565656"/>
</g>
<defs>
<clipPath id="clip0_214_137">
<rect width="35" height="35" fill="white"/>
</clipPath>
</defs>
</svg>
