<svg width="35" height="35" viewBox="0 0 35 35" fill="none" xmlns="http://www.w3.org/2000/svg">
<g clip-path="url(#clip0_214_183)">
<path d="M9.51004 23.6232C9.02432 23.1177 8.17379 23.0549 7.61864 23.4764L7.60406 23.467L6.3477 24.7234C6.07223 24.998 5.92119 25.3644 5.92119 25.754C5.90463 26.5386 6.59545 27.2279 7.37922 27.212C7.8355 27.2194 8.24185 26.9913 8.53946 26.656L9.51004 25.6854C9.71343 25.482 9.84988 25.2288 9.90652 24.9533C10.0082 24.4769 9.85786 23.9659 9.51004 23.6232Z" fill="#565656"/>
<path d="M6.01506 19.3522C5.44636 18.7834 4.52228 18.784 3.95289 19.3522C3.82056 19.4852 3.00461 20.3006 2.85357 20.4523C1.54204 21.8757 3.49076 23.8252 4.91489 22.5145C4.91489 22.5145 5.869 21.5603 6.01506 21.4143C6.58411 20.8462 6.58411 19.9211 6.01506 19.3522Z" fill="#565656"/>
<path d="M12.4912 26.9485C12.1016 26.9485 11.7351 27.1004 11.4597 27.3759L10.3595 28.476C10.3543 28.4812 10.3492 28.4863 10.344 28.4923C9.79275 29.037 9.80099 30.0015 10.3595 30.5382C10.9284 31.1063 11.8536 31.1063 12.4217 30.5382L13.5227 29.4372C14.4346 28.5276 13.7791 26.9436 12.4912 26.9485Z" fill="#565656"/>
<path d="M22.2756 10.7646C20.0247 12.184 17.0065 11.9146 15.0473 9.95537L12.4968 7.40576L15.6798 4.22282C12.2611 0.386384 6.24963 0.143007 2.61066 3.80669C-1.04805 7.44052 -0.813511 13.4449 3.01486 16.8646C5.80287 15.3063 9.23133 17.4828 9.00572 20.6577C10.8518 20.8572 12.4147 22.5304 12.4993 24.377C14.2353 24.3398 15.9597 25.6399 16.3825 27.3548C17.8278 26.9674 19.4476 27.4473 20.4374 28.5923L20.4665 28.5579C21.9015 29.4195 23.4196 27.6499 22.3373 26.361L22.3399 26.3576C22.3176 26.3362 16.5447 20.5633 16.5447 20.5633C16.9983 20.1096 17.9114 19.1966 18.3649 18.7431L24.094 24.4722C25.5173 25.7835 27.4672 23.8335 26.1553 22.41L20.4271 16.6809C20.8807 16.2273 21.7937 15.3143 22.2472 14.8607C23.5348 16.1483 26.6586 19.2722 27.9764 20.5899C28.5189 21.1551 29.4959 21.1548 30.0385 20.5899C30.6066 20.0209 30.6066 19.0958 30.0385 18.5277L22.2756 10.7646Z" fill="#565656"/>
<path d="M32.3888 3.80637C28.9004 0.318776 23.2244 0.318776 19.736 3.80637C19.0577 4.48509 16.7783 6.76498 16.1377 7.40552L16.8671 8.13496C18.1355 9.40333 20.1985 9.40333 21.4661 8.13496L22.3766 7.22445C22.8607 7.71386 31.7469 16.5849 31.9966 16.8522C35.8158 13.4312 36.0421 7.43547 32.3888 3.80637Z" fill="#565656"/>
<path d="M18.4394 30.2233C17.8703 29.6551 16.9459 29.6544 16.3772 30.2233L15.277 31.3234C14.7109 31.8661 14.7112 32.8428 15.277 33.3856C15.8205 33.9505 16.7961 33.9501 17.3392 33.3856L18.4394 32.2854C19.0043 31.7434 19.0043 30.764 18.4394 30.2233Z" fill="#565656"/>
</g>
<defs>
<clipPath id="clip0_214_183">
<rect width="35" height="35" fill="white"/>
</clipPath>
</defs>
</svg>
