<svg width="35" height="35" viewBox="0 0 35 35" fill="none" xmlns="http://www.w3.org/2000/svg">
<g clip-path="url(#clip0_214_191)">
<path d="M29.8755 5.12518C23.0412 -1.70834 11.9605 -1.7091 5.12542 5.12518C-1.70886 11.9595 -1.70809 23.0402 5.12542 29.8753C11.9597 36.708 23.0405 36.7088 29.8755 29.8753C36.709 23.0402 36.7083 11.9602 29.8755 5.12518ZM19.7824 25.1091C19.7824 26.3699 18.7605 27.3917 17.4997 27.3917C16.2389 27.3917 15.2171 26.3699 15.2171 25.1091V15.9785C15.2171 14.7177 16.2389 13.6958 17.4997 13.6958C18.7605 13.6958 19.7824 14.7177 19.7824 15.9785V25.1091ZM17.4594 12.0766C16.1446 12.0766 15.268 11.1453 15.2954 9.99561C15.268 8.79037 16.1446 7.88719 17.486 7.88719C18.8282 7.88719 19.6774 8.79113 19.7055 9.99561C19.7048 11.1453 18.829 12.0766 17.4594 12.0766Z" fill="#565656"/>
</g>
<defs>
<clipPath id="clip0_214_191">
<rect width="35" height="35" fill="white"/>
</clipPath>
</defs>
</svg>
