<svg width="35" height="35" viewBox="0 0 35 35" fill="none" xmlns="http://www.w3.org/2000/svg">
<g clip-path="url(#clip0_214_154)">
<path d="M32.9414 12.8752H35.0002V14.9341H32.9414V12.8752Z" fill="#565656"/>
<path d="M31.3037 9.06079L32.7593 7.60515L34.2149 9.06074L32.7593 10.5164L31.3037 9.06079Z" fill="#565656"/>
<path d="M31.3037 18.7524L32.7593 17.2969L34.2149 18.7524L32.7593 20.208L31.3037 18.7524Z" fill="#565656"/>
<path d="M8.23535 20.0809L20.5883 23.8976V3.91113L8.23535 7.72792V20.0809Z" fill="#565656"/>
<path d="M28.8232 9.79077V18.0182C31.5637 15.9559 31.5724 11.8596 28.8232 9.79077Z" fill="#565656"/>
<path d="M22.6475 1.55151H26.7651V26.2574H22.6475V1.55151Z" fill="#565656"/>
<path d="M8.76647 22.1396H2.74414L4.81429 31.1103C5.84246 34.9945 11.5015 33.6939 10.7298 29.7451L9.82944 26.2573H11.3233V24.1985H9.29799L8.76647 22.1396Z" fill="#565656"/>
<path d="M0 7.72803H6.17647V20.081H0V7.72803Z" fill="#565656"/>
</g>
<defs>
<clipPath id="clip0_214_154">
<rect width="35" height="35" fill="white"/>
</clipPath>
</defs>
</svg>
