<svg viewBox="0 0 36 35" fill="currentColor" xmlns="http://www.w3.org/2000/svg">
    <g clip-path="url(#clip0_214_195)">
        <path
            d="M34.8541 29.1256L19.4985 3.65971C19.1104 3.0161 18.4137 2.62256 17.662 2.62256C16.9104 2.62256 16.2136 3.01603 15.8256 3.65971L0.470133 29.1256C0.0707779 29.7879 0.0589517 30.614 0.439303 31.2874C0.819655 31.9609 1.53312 32.3773 2.30654 32.3773H33.0176C33.791 32.3773 34.5045 31.9608 34.8848 31.2874C35.2652 30.6139 35.2534 29.7879 34.8541 29.1256ZM17.6735 11.4315C18.5554 11.4315 19.3016 11.929 19.3016 12.8108C19.3016 15.5017 18.9851 19.3685 18.9851 22.0593C18.9851 22.7603 18.2162 23.0542 17.6735 23.0542C16.95 23.0542 16.3394 22.7603 16.3394 22.0593C16.3394 19.3685 16.0229 15.5017 16.0229 12.8108C16.0229 11.929 16.7464 11.4315 17.6735 11.4315ZM17.6961 28.0969C16.7012 28.0969 15.955 27.2829 15.955 26.3558C15.955 25.4061 16.7012 24.6147 17.6961 24.6147C18.6232 24.6147 19.4147 25.4061 19.4147 26.3558C19.4147 27.2829 18.6232 28.0969 17.6961 28.0969Z"/>
    </g>
    <defs>
        <clipPath id="clip0_214_195">
            <rect width="35" height="35" transform="translate(0.162109)"/>
        </clipPath>
    </defs>
</svg>
