<svg viewBox="0 0 253 90" fill="currentColor" xmlns="http://www.w3.org/2000/svg">
    <g clip-path="url(#clip0_198_4322)">
        <path
            d="M34.4845 23.5133H39.1935C39.2745 23.5269 39.3575 23.5227 39.4367 23.501C39.5159 23.4793 39.5895 23.4405 39.6522 23.3874C39.7149 23.3344 39.7653 23.2682 39.7999 23.1937C39.8345 23.1191 39.8524 23.0379 39.8524 22.9557C39.8524 22.8735 39.8345 22.7923 39.7999 22.7177C39.7653 22.6431 39.7149 22.577 39.6522 22.5239C39.5895 22.4708 39.5159 22.4321 39.4367 22.4103C39.3575 22.3886 39.2745 22.3844 39.1935 22.3981H34.4845C34.4035 22.3844 34.3205 22.3886 34.2413 22.4103C34.1621 22.4321 34.0885 22.4708 34.0258 22.5239C33.9631 22.577 33.9127 22.6431 33.8781 22.7177C33.8435 22.7923 33.8256 22.8735 33.8256 22.9557C33.8256 23.0379 33.8435 23.1191 33.8781 23.1937C33.9127 23.2682 33.9631 23.3344 34.0258 23.3874C34.0885 23.4405 34.1621 23.4793 34.2413 23.501C34.3205 23.5227 34.4035 23.5269 34.4845 23.5133ZM36.8547 64.9949C36.3666 64.9918 35.8887 65.1338 35.4813 65.4029C35.074 65.6719 34.7557 66.056 34.5668 66.5063C34.3779 66.9566 34.3268 67.4529 34.4201 67.9323C34.5134 68.4117 34.7469 68.8525 35.0909 69.199C35.4349 69.5454 35.874 69.7818 36.3524 69.8783C36.8309 69.9747 37.3272 69.9268 37.7784 69.7406C38.2296 69.5545 38.6154 69.2384 38.8869 68.8326C39.1584 68.4267 39.3033 67.9493 39.3033 67.4609C39.3033 66.8096 39.0459 66.1847 38.5871 65.7227C38.1283 65.2607 37.5056 64.9991 36.8547 64.9949ZM24.7842 62.8745H48.9095V27.2201H24.7842V62.8745ZM102.167 51.1572C101.019 51.1467 99.9058 51.5479 99.028 52.2881C98.0948 53.0519 97.4475 54.1093 97.1916 55.2881C97.0683 55.7497 96.9998 56.2241 96.9875 56.7017V60.2044C96.9736 61.6262 97.5076 62.9987 98.4787 64.0368C98.9333 64.5458 99.493 64.9499 100.119 65.2211C100.745 65.4923 101.423 65.6241 102.105 65.6075C102.901 65.6429 103.692 65.4755 104.406 65.1212C105.12 64.7668 105.732 64.237 106.186 63.5813C107.226 62.0012 107.737 60.131 107.645 58.241C107.719 56.4625 107.236 54.7054 106.264 53.2148C105.813 52.5511 105.2 52.0137 104.483 51.6536C103.766 51.2935 102.969 51.1226 102.167 51.1572ZM186.802 50.8588C185.936 50.8423 185.082 51.0653 184.334 51.5031C183.587 51.941 182.974 52.5767 182.564 53.3405C181.687 54.861 181.252 56.5964 181.308 58.351C181.252 60.0807 181.687 61.791 182.564 63.2829C182.961 64.0507 183.561 64.6945 184.299 65.144C185.036 65.5934 185.883 65.8312 186.747 65.8312C187.611 65.8312 188.458 65.5934 189.196 65.144C189.934 64.6945 190.534 64.0507 190.93 63.2829C191.821 61.7839 192.267 60.0626 192.217 58.3195C192.269 56.5923 191.84 54.8847 190.977 53.3876C190.579 52.6246 189.979 51.9855 189.243 51.5397C188.507 51.0939 187.663 50.8584 186.802 50.8588ZM125.115 51.1572C123.968 51.1495 122.855 51.5503 121.976 52.2881C121.047 53.0526 120.405 54.1105 120.155 55.2881C120.029 55.7494 119.955 56.2237 119.936 56.7017V60.2044C119.9 61.6174 120.399 62.9918 121.333 64.0525C121.787 64.5615 122.347 64.9656 122.973 65.2368C123.599 65.508 124.276 65.6398 124.958 65.6232C125.757 65.6613 126.552 65.4952 127.269 65.1407C127.986 64.7863 128.6 64.255 129.055 63.597C130.095 62.0169 130.607 60.1467 130.515 58.2567C130.589 56.4783 130.106 54.7211 129.134 53.2305C128.696 52.5822 128.104 52.0531 127.41 51.6911C126.717 51.3292 125.944 51.1457 125.163 51.1572H125.115ZM77.163 43.6808C76.8648 44.9059 76.4096 46.7279 75.7817 49.1311L73.3645 56.7017H81.2127L78.6385 49.2096C78.3716 48.3614 77.8693 46.5394 77.163 43.6808ZM221.993 50.6389C221.27 50.63 220.556 50.7986 219.913 51.1299C219.27 51.4613 218.718 51.9452 218.305 52.5394C217.505 53.5787 217.025 54.8286 216.924 56.1363H226.592C226.647 54.8861 226.336 53.6471 225.698 52.5709C225.312 51.9448 224.763 51.4347 224.111 51.0947C223.459 50.7546 222.728 50.5971 221.993 50.6389ZM97.6311 30.0159C97.662 29.8181 97.662 29.6168 97.6311 29.419V27.9426C95.7004 27.9426 93.8796 28.3195 93.8796 29.9531C93.8544 30.1654 93.8776 30.3807 93.9476 30.5828C94.0175 30.7848 94.1324 30.9684 94.2835 31.1196C94.4346 31.2708 94.618 31.3857 94.82 31.4557C95.0219 31.5257 95.2371 31.549 95.4493 31.5237C95.9258 31.5368 96.3942 31.3977 96.7865 31.1266C97.1787 30.8555 97.4746 30.4665 97.6311 30.0159ZM72.3128 23.2462C72.0146 22.351 71.7791 21.33 71.5594 20.4661C71.3396 21.33 71.0885 22.3667 70.8531 23.2462L69.7072 26.9216H73.5214L72.3128 23.2462ZM226.279 22.1939C229.763 22.1939 230.987 25.0682 230.987 27.4243C230.991 27.8137 230.96 28.2028 230.893 28.5866H223.689C223.705 28.9936 223.805 29.3928 223.985 29.7585C224.164 30.1243 224.418 30.4484 224.73 30.7102C225.041 30.972 225.405 31.1657 225.796 31.2787C226.187 31.3918 226.597 31.4217 227.001 31.3667C228.015 31.3785 229.024 31.2137 229.983 30.8798L230.375 32.7332C229.183 33.2101 227.908 33.445 226.624 33.4243C225.889 33.4923 225.148 33.3994 224.452 33.1519C223.756 32.9044 223.123 32.5084 222.596 31.9912C222.068 31.4741 221.66 30.8482 221.399 30.1572C221.137 29.4662 221.03 28.7266 221.083 27.9897C221.018 27.2624 221.104 26.5295 221.334 25.8366C221.565 25.1437 221.935 24.5056 222.422 23.962C222.909 23.4184 223.503 22.981 224.167 22.6768C224.83 22.3726 225.549 22.2082 226.279 22.1939ZM183.239 22.508L183.365 24.0787H183.443C183.805 23.4964 184.312 23.0189 184.915 22.6938C185.518 22.3686 186.196 22.2071 186.881 22.2253C188.764 22.2253 190.695 23.4347 190.695 26.8431V33.2358H187.948V27.1258C187.948 25.5551 187.383 24.4085 185.907 24.4085C185.434 24.4192 184.974 24.5757 184.592 24.8567C184.21 25.1377 183.924 25.5297 183.773 25.9792C183.686 26.2588 183.643 26.5503 183.647 26.8431V33.1258H180.932V25.6494C180.932 24.4243 180.932 23.3719 180.838 22.508H183.239ZM154.719 22.2724C158.203 22.2724 159.428 25.1468 159.428 27.5028C159.431 27.8923 159.4 28.2813 159.334 28.6651H152.003C152.019 29.0721 152.12 29.4713 152.299 29.8371C152.479 30.2028 152.732 30.527 153.044 30.7888C153.356 31.0506 153.719 31.2442 154.11 31.3573C154.501 31.4703 154.912 31.5003 155.315 31.4452C156.33 31.4554 157.339 31.2907 158.298 30.9583L158.69 32.8117C157.512 33.281 156.254 33.5157 154.986 33.5028C154.25 33.5708 153.509 33.4779 152.814 33.2304C152.118 32.983 151.485 32.5869 150.957 32.0697C150.43 31.5526 150.022 30.9268 149.76 30.2358C149.499 29.5447 149.392 28.8051 149.445 28.0682C149.368 27.3334 149.446 26.5907 149.672 25.8874C149.898 25.1841 150.268 24.5356 150.758 23.983C151.248 23.4305 151.848 22.9861 152.519 22.6781C153.19 22.3701 153.918 22.2052 154.656 22.1939L154.719 22.2724ZM143.574 17.5604H146.29V33.2672H143.574V17.5604ZM122.023 24.0787C121.005 24.0768 120.007 24.3538 119.135 24.8798L118.601 23.1049C119.788 22.455 121.126 22.1299 122.478 22.1625C125.932 22.1625 126.921 24.3457 126.921 26.7175V30.5813C126.905 31.4485 126.963 32.3155 127.093 33.173H124.645L124.456 31.9792C124.077 32.4419 123.597 32.8113 123.053 33.0591C122.508 33.3069 121.915 33.4265 121.317 33.4085C120.884 33.4433 120.449 33.3878 120.038 33.2456C119.628 33.1034 119.252 32.8775 118.933 32.5823C118.614 32.287 118.36 31.9288 118.187 31.5304C118.014 31.1319 117.925 30.7017 117.926 30.2672C117.926 27.5656 120.344 26.1834 124.315 26.1991V26.0264C124.158 25.2881 123.875 24.0787 122.023 24.0787ZM105.919 17.9531C106.124 17.9318 106.332 17.9539 106.528 18.018C106.725 18.0821 106.905 18.1868 107.059 18.3252C107.212 18.4636 107.335 18.6328 107.419 18.8216C107.503 19.0105 107.546 19.2149 107.546 19.4216C107.546 19.6284 107.503 19.8328 107.419 20.0216C107.335 20.2105 107.212 20.3797 107.059 20.5181C106.905 20.6565 106.725 20.7612 106.528 20.8253C106.332 20.8894 106.124 20.9115 105.919 20.8902C105.717 20.9104 105.513 20.8873 105.321 20.8225C105.129 20.7578 104.953 20.6528 104.804 20.5146C104.656 20.3764 104.538 20.2082 104.46 20.0211C104.381 19.834 104.344 19.6323 104.349 19.4295C104.344 19.2261 104.382 19.0238 104.46 18.836C104.538 18.6482 104.655 18.4791 104.804 18.3397C104.952 18.2003 105.128 18.0938 105.32 18.0272C105.512 17.9605 105.716 17.9353 105.919 17.9531ZM107.253 22.4295V33.2044H104.537V22.508L107.253 22.4295ZM69.8956 18.2986H73.3645L78.199 33.2044H75.2637L73.9138 28.9792H69.2049L67.9178 33.2044H65.1239L69.8956 18.2986ZM51.8133 67.6965C51.8133 68.9462 51.3172 70.1447 50.4341 71.0284C49.551 71.9121 48.3533 72.4085 47.1044 72.4085H26.6991C25.4503 72.4085 24.2525 71.9121 23.3694 71.0284C22.4863 70.1447 21.9902 68.9462 21.9902 67.6965V22.3353C21.9902 21.0855 22.4863 19.887 23.3694 19.0033C24.2525 18.1197 25.4503 17.6232 26.6991 17.6232H47.1044C48.3533 17.6232 49.551 18.1197 50.4341 19.0033C51.3172 19.887 51.8133 21.0855 51.8133 22.3353V67.6965ZM84.6031 68.7803L81.8876 60.2829H72.4698L69.8799 68.7803H65.0925L74.4004 39.7855H80.1767L89.5945 68.7646L84.6031 68.7803ZM85.6547 33.2044H82.9707L78.9838 22.508H81.919L83.6613 27.974C83.9338 28.8366 84.1643 29.712 84.3519 30.597C84.5403 29.7017 84.7914 28.8693 85.074 27.8955L86.9104 22.508H89.7672L85.6547 33.2044ZM91.2426 30.2358C91.2426 27.5342 93.6442 26.152 97.6311 26.1677V25.9949C97.6311 25.2881 97.3328 24.1101 95.4336 24.1101C94.4165 24.1129 93.4189 24.3896 92.5454 24.9112L92.0118 23.1363C93.206 22.4906 94.5473 22.1659 95.9045 22.1939C96.5139 22.1262 97.1307 22.1985 97.7081 22.4052C98.2854 22.6119 98.8081 22.9475 99.2363 23.3867C99.6646 23.8258 99.9871 24.3569 100.18 24.9394C100.372 25.522 100.429 26.1409 100.347 26.7489V30.6127C100.323 31.4801 100.381 32.3478 100.519 33.2044H98.0706L97.8665 32.0106C97.4843 32.4697 97.0036 32.8367 96.46 33.0841C95.9165 33.3316 95.3242 33.4532 94.7272 33.44C94.2816 33.4895 93.8305 33.4429 93.4044 33.3033C92.9782 33.1637 92.5869 32.9344 92.2567 32.6309C91.9266 32.3273 91.6652 31.9564 91.4903 31.5433C91.3154 31.1301 91.2309 30.6843 91.2426 30.2358ZM109.466 66.4871C108.652 67.3732 107.658 68.0753 106.551 68.5466C105.444 69.0179 104.249 69.2475 103.046 69.2201C101.876 69.3169 100.702 69.0914 99.6503 68.5681C98.5989 68.0449 97.7106 67.2437 97.0817 66.2515V77.2462H92.3728V54.7541C92.3728 52.5237 92.3728 50.2305 92.2001 47.8902H96.2812L96.5323 51.2044H96.6265C97.3299 50.1268 98.2751 49.2287 99.3869 48.5815C100.499 47.9342 101.746 47.5559 103.03 47.4765C104.314 47.3972 105.598 47.6191 106.781 48.1245C107.964 48.6299 109.012 49.4049 109.843 50.3876C111.568 52.5701 112.444 55.3046 112.307 58.0839C112.489 61.1482 111.47 64.1626 109.466 66.4871ZM114.175 33.2044H111.46V17.4976H114.175V33.2044ZM132.351 66.4871C131.533 67.372 130.536 68.0731 129.427 68.5442C128.317 69.0153 127.121 69.2457 125.916 69.2201C124.746 69.3151 123.572 69.0889 122.521 68.5658C121.47 68.0427 120.582 67.2425 119.951 66.2515V77.2462H115.242V54.7541C115.242 52.5237 115.242 50.2305 115.07 47.8902H119.135L119.402 51.2044H119.48C120.184 50.1268 121.129 49.2287 122.241 48.5815C123.353 47.9342 124.6 47.5559 125.884 47.4765C127.167 47.3972 128.452 47.6191 129.635 48.1245C130.818 48.6299 131.866 49.4049 132.697 50.3876C134.428 52.5679 135.309 55.3026 135.177 58.0839C135.356 61.1452 134.344 64.1569 132.351 66.4871ZM135.491 33.4085C134.808 33.4428 134.128 33.288 133.527 32.961C132.926 32.634 132.427 32.1476 132.085 31.5551L131.959 33.1258H129.636C129.636 32.3876 129.73 31.1939 129.73 30.0944V17.5133H132.446V23.9216C132.818 23.3581 133.331 22.9021 133.934 22.5989C134.537 22.2958 135.209 22.1561 135.883 22.1939C138.52 22.1939 140.388 24.3771 140.372 27.6442C140.419 31.5237 137.971 33.5028 135.538 33.5028L135.491 33.4085ZM158.847 66.6441C156.637 68.4364 153.838 69.3383 150.999 69.1729C148.377 69.3016 145.773 68.6747 143.496 67.3667L144.579 63.5028C146.603 64.6998 148.914 65.3241 151.266 65.3091C152.726 65.3986 154.172 64.9826 155.362 64.1311C155.828 63.754 156.201 63.2744 156.452 62.7295C156.702 62.1846 156.824 61.5892 156.806 60.9897C156.819 60.4422 156.72 59.8978 156.515 59.39C156.309 58.8823 156.003 58.4218 155.613 58.0368C154.445 57.0331 153.09 56.2698 151.627 55.7908C146.541 53.9059 143.998 51.1468 143.998 47.5133C143.97 46.3967 144.198 45.2885 144.663 44.2731C145.128 43.2578 145.819 42.3622 146.682 41.6546C148.701 40.0637 151.226 39.255 153.793 39.3771C156.063 39.2969 158.319 39.7656 160.369 40.7436L159.208 44.4976C157.497 43.5933 155.586 43.1342 153.651 43.1625C152.271 43.0886 150.91 43.5183 149.822 44.3719C149.453 44.7017 149.159 45.1061 148.959 45.5583C148.758 46.0106 148.657 46.5003 148.66 46.9949C148.65 47.5395 148.764 48.0791 148.996 48.5721C149.227 49.0651 149.569 49.4982 149.994 49.8379C151.269 50.801 152.689 51.554 154.201 52.0682C156.283 52.8007 158.164 54.011 159.695 55.6023C160.892 56.9974 161.525 58.7902 161.468 60.6284C161.51 61.7638 161.301 62.8943 160.856 63.9395C160.411 64.9847 159.741 65.9189 158.894 66.6756L158.847 66.6441ZM175.203 51.33H170.086V61.4923C170.086 64.0682 170.996 65.3405 172.801 65.3405C173.492 65.3616 174.182 65.2983 174.857 65.152L174.983 68.6546C173.824 69.0375 172.608 69.213 171.388 69.1729C170.594 69.2207 169.799 69.0968 169.057 68.8095C168.314 68.5222 167.643 68.0783 167.088 67.508C165.889 65.8857 165.33 63.8781 165.518 61.8693V51.3614H162.473V47.8902H165.518V44.0578L170.07 42.6913V47.8902H175.187L175.203 51.33ZM172.628 33.5028C171.9 33.5309 171.175 33.4054 170.498 33.1346C169.822 32.8637 169.21 32.4536 168.702 31.9307C168.194 31.4079 167.802 30.784 167.551 30.0996C167.3 29.4152 167.196 28.6857 167.244 27.9583C167.19 27.2063 167.296 26.4514 167.555 25.7435C167.814 25.0356 168.221 24.3908 168.747 23.8518C169.274 23.3128 169.909 22.8919 170.611 22.6169C171.312 22.342 172.064 22.2192 172.817 22.2567C173.541 22.2282 174.264 22.3532 174.937 22.6235C175.61 22.8938 176.218 23.3034 176.722 23.8254C177.226 24.3474 177.614 24.97 177.861 25.6524C178.107 26.3349 178.207 27.0618 178.153 27.7855C178.209 28.5346 178.106 29.287 177.851 29.9934C177.596 30.6998 177.194 31.3442 176.672 31.8841C176.15 32.4241 175.52 32.8475 174.823 33.1265C174.126 33.4054 173.378 33.5337 172.628 33.5028ZM194.227 66.0787C193.257 67.1264 192.071 67.9501 190.751 68.4926C189.43 69.0351 188.008 69.2833 186.582 69.2201C185.21 69.279 183.841 69.0368 182.572 68.5104C181.303 67.984 180.165 67.1862 179.237 66.173C177.392 64.043 176.422 61.2933 176.521 58.4766C176.405 55.565 177.411 52.7201 179.331 50.529C180.289 49.4836 181.464 48.6608 182.774 48.1181C184.083 47.5754 185.496 47.3261 186.912 47.3876C188.292 47.3217 189.67 47.5605 190.948 48.0871C192.225 48.6137 193.372 49.4152 194.305 50.4347C196.135 52.5516 197.089 55.2873 196.973 58.0839C197.109 61.0017 196.126 63.8612 194.227 66.0787ZM199.077 22.508H200.646V20.419L203.33 19.6651V22.508H205.905V24.5499H203.33V29.262C203.33 30.597 203.676 31.2567 204.712 31.2567C205.071 31.2686 205.43 31.2316 205.779 31.1468V33.2044C205.145 33.4072 204.482 33.5027 203.817 33.4871C203.385 33.5107 202.953 33.4447 202.548 33.2933C202.143 33.142 201.773 32.9085 201.463 32.6075C200.799 31.7441 200.49 30.6597 200.599 29.5761V24.4714H199.03L199.077 22.508ZM210.99 52.0525C210.509 51.9612 210.02 51.9191 209.531 51.9269C208.795 51.8927 208.063 52.0447 207.402 52.3686C206.741 52.6926 206.172 53.1781 205.748 53.7803C204.936 54.9951 204.53 56.4355 204.586 57.8955V68.8902H199.956V54.4557C199.956 52.0682 199.956 49.8693 199.83 47.8902H203.864L204.037 51.8797H204.162C204.601 50.5782 205.408 49.4322 206.485 48.5813C207.454 47.8542 208.633 47.4627 209.844 47.4661C210.226 47.4394 210.609 47.4394 210.99 47.4661V52.0525ZM211.697 26.8274V33.2829H208.981V17.5761H211.697V23.9531C212.032 23.4374 212.497 23.02 213.047 22.7436C213.616 22.4218 214.26 22.2539 214.914 22.2567C216.751 22.2567 218.682 23.4661 218.682 26.9688V33.2515H215.95V27.2201C215.95 25.6494 215.385 24.4871 213.878 24.4871C213.406 24.4964 212.948 24.6526 212.568 24.934C212.189 25.2155 211.906 25.6082 211.759 26.0578C211.703 26.2835 211.682 26.5166 211.697 26.7489V26.8274ZM230.846 59.5447H216.924C216.893 60.4309 217.059 61.3129 217.409 62.1275C217.759 62.9421 218.285 63.6692 218.948 64.2567C220.243 65.2716 221.857 65.7897 223.5 65.7175C225.419 65.7507 227.327 65.4147 229.12 64.7279L229.857 67.9635C227.637 68.8694 225.253 69.3026 222.857 69.2358C221.458 69.314 220.058 69.1019 218.745 68.6126C217.433 68.1233 216.235 67.3676 215.228 66.3928C214.27 65.3511 213.531 64.1277 213.054 62.7949C212.576 61.4622 212.371 60.0472 212.45 58.6337C212.356 55.794 213.268 53.0124 215.024 50.7803C215.898 49.6901 217.015 48.8197 218.285 48.2387C219.555 47.6578 220.943 47.3825 222.339 47.4347C223.668 47.3588 224.995 47.6267 226.191 48.2127C227.386 48.7986 228.411 49.6829 229.167 50.7803C230.447 52.7307 231.094 55.0292 231.019 57.3614C231.026 58.0668 230.968 58.7713 230.846 59.4661V59.5447ZM134.941 24.3928C134.376 24.4083 133.831 24.6132 133.396 24.9749C132.961 25.3366 132.659 25.8341 132.54 26.3876C132.48 26.6186 132.449 26.8559 132.446 27.0944V28.7908C132.422 29.0047 132.422 29.2207 132.446 29.4347C132.579 29.976 132.889 30.4572 133.327 30.8016C133.765 31.146 134.306 31.3339 134.863 31.3353C136.558 31.3353 137.594 29.9845 137.594 27.8012C137.72 25.8536 136.746 24.3143 134.941 24.3143V24.3928ZM154.499 24.0787C153.826 24.1186 153.193 24.4137 152.729 24.9039C152.266 25.3941 152.006 26.0426 152.003 26.7175H156.712C156.756 26.396 156.733 26.0688 156.643 25.757C156.553 25.4452 156.399 25.1558 156.19 24.9072C155.982 24.6587 155.723 24.4565 155.432 24.3138C155.141 24.1711 154.823 24.091 154.499 24.0787ZM172.738 24.1887C170.823 24.1887 170.054 26.0735 170.054 27.864C170.054 29.9373 171.09 31.508 172.723 31.508C174.355 31.508 175.344 29.9373 175.344 27.8169C175.391 26.1049 174.606 24.1572 172.738 24.1572V24.1887ZM120.454 29.9531C120.431 30.1648 120.457 30.3788 120.528 30.5794C120.599 30.7801 120.714 30.9624 120.864 31.1129C121.015 31.2634 121.197 31.3784 121.397 31.4495C121.598 31.5206 121.812 31.546 122.023 31.5237C122.489 31.5314 122.945 31.3932 123.327 31.1284C123.71 30.8637 124.001 30.4856 124.158 30.0473C124.189 29.8495 124.189 29.6482 124.158 29.4504V27.974C122.306 27.9112 120.454 28.3195 120.454 29.9531ZM226.122 24.0787C225.448 24.1186 224.816 24.4137 224.352 24.9039C223.888 25.3941 223.629 26.0426 223.626 26.7175H228.335C228.381 26.3956 228.359 26.0675 228.271 25.7546C228.182 25.4418 228.028 25.1513 227.819 24.9022C227.61 24.6531 227.35 24.4509 227.058 24.309C226.766 24.1671 226.446 24.0886 226.122 24.0787Z"/>
        <path
            d="M240.781 90.0471H12.1479C8.93543 90.0471 5.85402 88.7723 3.57949 86.5021C1.30495 84.2319 0.0229603 81.1518 0.0146484 77.9372V12.1257C0.0188079 8.90829 1.29897 5.82412 3.57395 3.55057C5.84894 1.27702 8.93271 -2.69223e-06 12.1479 0H240.781C243.995 0 247.077 1.27753 249.35 3.55153C251.622 5.82553 252.899 8.90973 252.899 12.1257V77.8901C252.903 79.4851 252.593 81.0652 251.986 82.54C251.378 84.0148 250.487 85.3552 249.361 86.4845C248.235 87.6138 246.898 88.5098 245.426 89.1211C243.954 89.7325 242.375 90.0471 240.781 90.0471ZM12.1479 3.14136C9.7653 3.14136 7.48001 4.08742 5.79375 5.77185C4.1075 7.45628 3.15808 9.74143 3.15392 12.1257V77.8901C3.15186 79.0733 3.38297 80.2453 3.83404 81.339C4.28511 82.4328 4.94728 83.4268 5.78266 84.2642C6.61804 85.1016 7.61022 85.7659 8.70245 86.2192C9.79468 86.6724 10.9655 86.9058 12.1479 86.9058H240.781C243.16 86.9058 245.441 85.9614 247.124 84.2799C248.808 82.5984 249.756 80.3172 249.76 77.9372V12.1257C249.756 9.74415 248.808 7.46137 247.125 5.77739C245.443 4.09341 243.161 3.14551 240.781 3.14136H12.1479Z"/>
    </g>
    <defs>
        <clipPath id="clip0_198_4322">
            <rect width="252.9" height="90"/>
        </clipPath>
    </defs>
</svg>
