<svg viewBox="0 0 25 25" fill="currentColor" xmlns="http://www.w3.org/2000/svg">
    <path
        d="M24.9417 12.1876C24.9333 12.1658 24.924 12.1445 24.914 12.1234C23.8053 9.82093 22.08 7.87329 19.9246 6.491C17.71 5.07071 15.1426 4.32007 12.5002 4.32007C9.85767 4.32007 7.29017 5.07082 5.07557 6.49123C2.92808 7.86844 1.20755 9.80707 0.0984612 12.0985C-0.0258364 12.3366 -0.0350779 12.6244 0.0857542 12.8755C1.19427 15.1783 2.91965 17.1263 5.07522 18.5088C7.28994 19.9294 9.85744 20.6801 12.5002 20.6801C15.1428 20.6801 17.7103 19.9294 19.9249 18.5089C22.0804 17.1265 23.8057 15.1787 24.9143 12.876C25.0181 12.6604 25.0278 12.4107 24.9417 12.1876ZM12.5002 18.9472C8.04311 18.9472 3.90329 16.4302 1.83643 12.4999C3.90329 8.56964 8.04311 6.05273 12.5002 6.05273C16.9571 6.05273 21.097 8.56987 23.1639 12.5C21.0969 16.43 16.957 18.9472 12.5002 18.9472Z"/>
    <path
        d="M12.4998 8.69751C10.4031 8.69751 8.69727 10.4034 8.69727 12.5C8.69727 14.5967 10.4031 16.3025 12.4998 16.3025C14.5964 16.3025 16.3023 14.5967 16.3023 12.5C16.3023 10.4034 14.5964 8.69751 12.4998 8.69751ZM12.4998 14.5698C11.3586 14.5698 10.43 13.6412 10.43 12.5C10.43 11.3588 11.3586 10.4303 12.4998 10.4303C13.641 10.4303 14.5695 11.3588 14.5695 12.5C14.5695 13.6412 13.641 14.5698 12.4998 14.5698Z"/>
</svg>
