<svg viewBox="0 0 35 35" fill="currentColor" xmlns="http://www.w3.org/2000/svg">
    <path
        d="M30.625 0H6.5625C5.99621 0 5.53711 0.459102 5.53711 1.02539V5.53711H4.375C3.80871 5.53711 3.34961 5.99621 3.34961 6.5625C3.34961 7.12879 3.80871 7.58789 4.375 7.58789H5.53711V11.0059H4.375C3.80871 11.0059 3.34961 11.465 3.34961 12.0312C3.34961 12.5975 3.80871 13.0566 4.375 13.0566H5.53711V16.4746H4.375C3.80871 16.4746 3.34961 16.9337 3.34961 17.5C3.34961 18.0663 3.80871 18.5254 4.375 18.5254H5.53711V21.9434H4.375C3.80871 21.9434 3.34961 22.4025 3.34961 22.9688C3.34961 23.535 3.80871 23.9941 4.375 23.9941H5.53711V27.4121H4.375C3.80871 27.4121 3.34961 27.8712 3.34961 28.4375C3.34961 29.0038 3.80871 29.4629 4.375 29.4629H5.53711V33.9746C5.53711 34.5409 5.99621 35 6.5625 35H30.625C31.1913 35 31.6504 34.5409 31.6504 33.9746V1.02539C31.6504 0.459102 31.1913 0 30.625 0ZM24.0625 25.6348C23.4962 25.6348 23.0371 25.1757 23.0371 24.6094C23.0371 21.8876 21.3751 19.0723 18.5938 19.0723C15.8124 19.0723 14.1504 21.8876 14.1504 24.6094C14.1504 25.1757 13.6913 25.6348 13.125 25.6348C12.5587 25.6348 12.0996 25.1757 12.0996 24.6094C12.0996 22.0042 13.289 19.305 15.467 17.9268C14.412 17.0358 13.7402 15.7045 13.7402 14.2188C13.7402 11.5425 15.9175 9.36523 18.5938 9.36523C21.27 9.36523 23.4473 11.5425 23.4473 14.2188C23.4473 15.7045 22.7755 17.0358 21.7205 17.9268C23.8986 19.305 25.0879 22.0038 25.0879 24.6094C25.0879 25.1757 24.6288 25.6348 24.0625 25.6348Z"
    />
    <path
        d="M18.5938 17.0215C20.1417 17.0215 21.3965 15.7667 21.3965 14.2188C21.3965 12.6708 20.1417 11.416 18.5938 11.416C17.0458 11.416 15.791 12.6708 15.791 14.2188C15.791 15.7667 17.0458 17.0215 18.5938 17.0215Z"
    />
</svg>
