<svg viewBox="0 0 35 35" fill="currentColor" xmlns="http://www.w3.org/2000/svg">
    <path
        d="M7.24609 35H27.7539C29.4502 35 30.8301 33.6201 30.8301 31.9238V10.2539H23.6523C21.9561 10.2539 20.5762 8.874 20.5762 7.17773V0H7.24609C5.54982 0 4.16992 1.3799 4.16992 3.07617V31.9238C4.16992 33.6201 5.54982 35 7.24609 35ZM11.3477 14.4238H23.6523C24.2191 14.4238 24.6777 14.8825 24.6777 15.4492C24.6777 16.016 24.2191 16.4746 23.6523 16.4746H11.3477C10.7809 16.4746 10.3223 16.016 10.3223 15.4492C10.3223 14.8825 10.7809 14.4238 11.3477 14.4238ZM11.3477 18.5254H23.6523C24.2191 18.5254 24.6777 18.984 24.6777 19.5508C24.6777 20.1175 24.2191 20.5762 23.6523 20.5762H11.3477C10.7809 20.5762 10.3223 20.1175 10.3223 19.5508C10.3223 18.984 10.7809 18.5254 11.3477 18.5254ZM11.3477 22.627H23.6523C24.2191 22.627 24.6777 23.0856 24.6777 23.6523C24.6777 24.2191 24.2191 24.6777 23.6523 24.6777H11.3477C10.7809 24.6777 10.3223 24.2191 10.3223 23.6523C10.3223 23.0856 10.7809 22.627 11.3477 22.627ZM11.3477 26.7285H19.5508C20.1175 26.7285 20.5762 27.1871 20.5762 27.7539C20.5762 28.3207 20.1175 28.7793 19.5508 28.7793H11.3477C10.7809 28.7793 10.3223 28.3207 10.3223 27.7539C10.3223 27.1871 10.7809 26.7285 11.3477 26.7285Z"
    />
    <path d="M23.6523 8.20314H30.2293L22.627 0.60083V7.17775C22.627 7.7435 23.0866 8.20314 23.6523 8.20314Z"/>
</svg>
