<svg viewBox="0 0 35 35" fill="currentColor" xmlns="http://www.w3.org/2000/svg">
    <path
        d="M32.8149 16.4861H14.2094C13.6489 16.4861 13.1904 16.9446 13.1904 17.505C13.1904 18.0654 13.6489 18.5239 14.2094 18.5239H32.8149C33.3753 18.5239 33.8338 18.0654 33.8338 17.505C33.8338 16.9446 33.3855 16.4861 32.8149 16.4861Z"
    />
    <path
        d="M5.90498 12.7671C3.28635 12.7671 1.16699 14.8864 1.16699 17.5051C1.16699 20.1237 3.28635 22.2431 5.90498 22.2431C8.52361 22.2431 10.643 20.1237 10.643 17.5051C10.643 14.8864 8.52361 12.7671 5.90498 12.7671ZM5.90498 20.2052C4.40717 20.2052 3.20484 18.9927 3.20484 17.5051C3.20484 16.0073 4.41736 14.8049 5.90498 14.8049C7.39261 14.8049 8.60513 16.0175 8.60513 17.5051C8.60513 18.9927 7.39261 20.2052 5.90498 20.2052Z"
    />
    <path
        d="M32.8149 3.74951H14.2094C13.6489 3.74951 13.1904 4.20803 13.1904 4.76843C13.1904 5.32884 13.6489 5.78736 14.2094 5.78736H32.8149C33.3753 5.78736 33.8338 5.32884 33.8338 4.76843C33.8338 4.20803 33.3855 3.74951 32.8149 3.74951Z"
    />
    <path
        d="M5.90498 0C3.28635 0 1.16699 2.11936 1.16699 4.73799C1.16699 7.35662 3.28635 9.47598 5.90498 9.47598C8.52361 9.47598 10.643 7.35662 10.643 4.73799C10.643 2.12955 8.52361 0.0101892 5.90498 0ZM5.90498 7.44833C4.40717 7.44833 3.20484 6.23581 3.20484 4.74818C3.20484 3.26055 4.41736 2.04803 5.90498 2.04803C7.4028 2.04803 8.60513 3.26055 8.60513 4.74818C8.60513 6.23581 7.39261 7.44833 5.90498 7.44833Z"
    />
    <path
        d="M32.8149 29.2227H14.2094C13.6489 29.2227 13.1904 29.6812 13.1904 30.2416C13.1904 30.802 13.6489 31.2605 14.2094 31.2605H32.8149C33.3753 31.2605 33.8338 30.802 33.8338 30.2416C33.8338 29.6812 33.3855 29.2227 32.8149 29.2227Z"
    />
    <path
        d="M5.90498 25.5239C3.28635 25.5239 1.16699 27.6433 1.16699 30.2619C1.16699 32.8806 3.28635 34.9999 5.90498 34.9999C8.52361 34.9999 10.643 32.8806 10.643 30.2619C10.643 27.6535 8.52361 25.5239 5.90498 25.5239ZM5.90498 32.9723C4.40717 32.9723 3.20484 31.7597 3.20484 30.2721C3.20484 28.7743 4.41736 27.572 5.90498 27.572C7.4028 27.572 8.60513 28.7845 8.60513 30.2721C8.60513 31.7597 7.39261 32.9723 5.90498 32.9723Z"
    />
</svg>
