<svg viewBox="0 0 35 35" fill="currentColor" xmlns="http://www.w3.org/2000/svg">
    <g clip-path="url(#clip0_214_146)">
        <path
            d="M34.7492 20.8613L32.5386 18.3129C34.1319 16.3197 35 13.8554 35 11.2793C35 5.05989 29.9402 0 23.7207 0C17.5012 0 12.4414 5.05989 12.4414 11.2793C12.4414 17.4987 17.5013 22.5586 23.7207 22.5586H33.9746C34.3762 22.5586 34.7408 22.3242 34.9074 21.9589C35.0742 21.5936 35.0123 21.1647 34.7492 20.8613ZM23.7207 18.252C23.1544 18.252 22.6953 17.7929 22.6953 17.2266C22.6953 16.6603 23.1544 16.2012 23.7207 16.2012C24.287 16.2012 24.7461 16.6603 24.7461 17.2266C24.7461 17.7929 24.2871 18.252 23.7207 18.252ZM26.5735 10.8801C26.0739 11.4064 25.4374 11.7811 24.7462 11.9688V14.1221C24.7462 14.6884 24.2871 15.1475 23.7208 15.1475C23.1545 15.1475 22.6954 14.6884 22.6954 14.1221V11.0807C22.6954 10.5144 23.1545 10.0553 23.7208 10.0553C24.2419 10.0553 24.7268 9.84676 25.0864 9.46812C25.4455 9.08982 25.6284 8.59352 25.6013 8.07064C25.5505 7.09167 24.7417 6.30923 23.7601 6.28947C23.7473 6.2892 23.7344 6.28906 23.7216 6.28906C22.784 6.28906 21.9855 6.97888 21.8559 7.90829C21.8438 7.99483 21.8377 8.08363 21.8377 8.17223C21.8377 8.73852 21.3786 9.19762 20.8123 9.19762C20.246 9.19762 19.7869 8.73852 19.7869 8.17223C19.7869 7.98916 19.7997 7.80507 19.8248 7.62487C20.0997 5.65455 21.8116 4.19829 23.8014 4.2391C25.8528 4.28046 27.543 5.91678 27.6493 7.96435C27.7058 9.0544 27.3238 10.09 26.5735 10.8801Z"/>
        <path
            d="M14.6973 22.6954H7.86135C7.29506 22.6954 6.83596 22.2363 6.83596 21.67C6.83596 21.1037 7.29506 20.6446 7.86135 20.6446H14.2457C12.1269 18.5012 10.7274 15.6452 10.4446 12.4724C4.61352 12.901 1.75624e-05 17.7822 1.75624e-05 23.7208C1.75624e-05 26.2969 0.868113 28.7612 2.46143 30.7544L0.250828 33.3028C-0.0122871 33.6062 -0.0741524 34.0351 0.0925762 34.4005C0.259305 34.7657 0.623865 35.0001 1.02541 35.0001H11.2793C17.218 35.0001 22.0991 30.3866 22.5277 24.5555C19.9757 24.328 17.6289 23.3778 15.6927 21.9124C15.5836 22.3615 15.18 22.6954 14.6973 22.6954ZM14.6973 26.797H7.86135C7.29506 26.797 6.83596 26.3379 6.83596 25.7716C6.83596 25.2053 7.29506 24.7462 7.86135 24.7462H14.6973C15.2636 24.7462 15.7227 25.2053 15.7227 25.7716C15.7227 26.3379 15.2636 26.797 14.6973 26.797Z"/>
    </g>
    <defs>
        <clipPath id="clip0_214_146">
            <rect width="35" height="35"/>
        </clipPath>
    </defs>
</svg>
