<svg width="35" height="35" viewBox="0 0 35 35" fill="none" xmlns="http://www.w3.org/2000/svg">
<g clip-path="url(#clip0_214_118)">
<path d="M17.4999 16.7391C20.4415 16.7391 22.826 14.3545 22.826 11.413C22.826 8.47149 20.4415 6.08691 17.4999 6.08691C14.5584 6.08691 12.1738 8.47149 12.1738 11.413C12.1738 14.3545 14.5584 16.7391 17.4999 16.7391Z" fill="#565656"/>
<path d="M28.152 19.7825C30.253 19.7825 31.9563 18.0792 31.9563 15.9782C31.9563 13.8771 30.253 12.1738 28.152 12.1738C26.0509 12.1738 24.3477 13.8771 24.3477 15.9782C24.3477 18.0792 26.0509 19.7825 28.152 19.7825Z" fill="#565656"/>
<path d="M6.95569 19.7825C9.05675 19.7825 10.76 18.0792 10.76 15.9782C10.76 13.8771 9.05675 12.1738 6.95569 12.1738C4.85462 12.1738 3.15137 13.8771 3.15137 15.9782C3.15137 18.0792 4.85462 19.7825 6.95569 19.7825Z" fill="#565656"/>
<path d="M17.4997 18.261C12.0458 18.261 7.6084 22.6984 7.6084 28.1523C7.6084 28.5723 7.94929 28.9132 8.36929 28.9132H26.6302C27.0502 28.9132 27.391 28.5723 27.391 28.1523C27.391 22.6984 22.9537 18.261 17.4997 18.261Z" fill="#565656"/>
<path d="M8.2676 21.4688C7.80195 21.3699 7.32867 21.3044 6.84782 21.3044C3.07239 21.3044 0 24.3768 0 28.1523C0 28.5723 0.340893 28.9132 0.760893 28.9132H6.22695C6.14171 28.6743 6.08693 28.4201 6.08693 28.1523C6.08693 25.6551 6.9026 23.3497 8.2676 21.4688Z" fill="#565656"/>
<path d="M28.1522 21.3044C27.6714 21.3044 27.1981 21.3699 26.7324 21.4688C28.0974 23.3497 28.9131 25.6551 28.9131 28.1523C28.9131 28.4201 28.8583 28.6742 28.7731 28.9132H34.2391C34.6591 28.9132 35 28.5723 35 28.1523C35 24.3768 31.9276 21.3044 28.1522 21.3044Z" fill="#565656"/>
</g>
<defs>
<clipPath id="clip0_214_118">
<rect width="35" height="35" fill="white"/>
</clipPath>
</defs>
</svg>
